<svg width="621" height="440" viewBox="0 0 622 440" xmlns="http://www.w3.org/2000/svg" preserveAspectRatio="xMidYMid"><defs><linearGradient x1="-42.681%" y1="23.018%" x2="107.548%" y2="74.539%" id="linearGradient-1"><stop stop-color="#FCA3BB" offset="0%"/><stop stop-color="#FDDCE5" offset="100%"/></linearGradient></defs><g id="Desktop" stroke="none" stroke-width="1" fill="none" fill-rule="evenodd"><g id="1.0-Home" transform="translate(-94 -1497)" fill="url(#linearGradient-1)"><g id="Why-Choose-Molly-Maid" transform="translate(-41 215)"><g id="Enticing-Leader-Copy" transform="translate(135 1282)"><path d="M124.837 115.332c-160.978 7.991-148.509 165.428-62.521 203.15 79.222 34.759 229.376-14.697 332.752 73.03 16.402 13.923 32.24 24.454 47.269 32.325 77.11 40.363 171.978-9.798 177.431-96.655 5.584-88.884-91.368-112.976-111.445-181.993C486.247 69.292 487.193 3.375 400.546.127A183.86 183.86 0 00393.719 0C281.022 0 267.975 108.225 124.837 115.332" id="Fill-6"/></g></g></g></g></svg>